@startuml

package webgpu {
    class GPU
    class GPUDevice
    class GPUBuffer
    class GPUTexture
    class GPURenderPipeline
    class GPUBindGroup
    class GPUBindGroupLayout
    class GPUBindGroupEntry
    class GPUSampler
    class GPURenderPassEncoder
    class GPURenderBundleEncoder
    class GPURenderBundle
    class GPUPrimitiveState
    class GPUBlendState
    class GPUVertexBufferLayout
    class GPUSamplerDescriptor
    class GPUBindGroupLayoutDescriptor
    class GPUTextureFormat
}

package sprunk.core {
    class OutputBehavior
    class GameEngineComponent
}

package sprunk.extensions.renderengine {
    class Renderer {
        +onError: Event<Error>
        +onRenderingReady: Event<void>
        +camera: Camera | null
        +IsRenderingReady: boolean
        +constructor(canvasToDrawOn: HTMLCanvasElement | null, gpu: GPU | null)
        +createBindGroupLayout(descriptor: GPUBindGroupLayoutDescriptor): GPUBindGroupLayout
        +createBindGroup(bindGroupLayout: GPUBindGroupLayout, entries: GPUBindGroupEntry[]): GPUBindGroup
        +createSampler(descriptor: GPUSamplerDescriptor): GPUSampler
        +createPipeline(vertexWGSLShader: string, fragmentWGSLShader: string, primitiveState: GPUPrimitiveState, bindGroupLayouts: GPUBindGroupLayout[], buffers: GPUVertexBufferLayout, targetBlend?: GPUBlendState): GPURenderPipeline
        +createTexture(url: RequestInfo | URL): GPUTexture
        +createUniformBuffer(data: Float32Array): GPUBuffer
        +fillUniformBuffer(buffer: GPUBuffer, data: Float32Array): void
        +createVertexBuffer(data: Float32Array): GPUBuffer
        +createIndexBuffer(data: Uint16Array): GPUBuffer
        +createStorageBuffer(size: number, label: string): GPUBuffer
        +createRenderBundleEncoder(descriptor: GPURenderBundleEncoderDescriptor): GPURenderBundleEncoder
        +onAttachedTo(_gameEngine: GameEngineWindow): void
        +presentationTextureFormat(): GPUTextureFormat
        +requestResources(): void
        +startRendering(): void
        +subscribeToDeviceEvents(device: GPUDevice): void
        +createDepthTexture(): void
        +resizeCanvasToMatchDisplaySize(): void
        +frame(_deltaTime: number): void
    }

    class RenderBehavior {
        #_renderEngine: Renderer
        #_pipeline: GPURenderPipeline | null
        #_bindGroupLayouts: GPUBindGroupLayout[] | null
        #_mvpUniformBuffer: GPUBuffer | null
        #_vertexWGSLShader: string
        #_fragmentWGSLShader: string
        #_primitiveState: GPUPrimitiveState
        #_bindGroupLayoutDescriptors: GPUBindGroupLayoutDescriptor[]
        #_buffers: Iterable<GPUVertexBufferLayout | null> | undefined
        #_targetBlend: GPUBlendState | undefined
        +constructor(renderEngine: Renderer, vertexWGSLShader: string, fragmentWGSLShader: string, primitiveState: GPUPrimitiveState, bindGroupLayoutDescriptors: GPUBindGroupLayoutDescriptor[], buffers?: Iterable<GPUVertexBufferLayout | null>, targetBlend?: GPUBlendState)
        +asyncInit(): Promise<void>
        +render(renderpass: GPURenderPassEncoder): void
    }

    class Camera {
        #_fov: number
        #_aspect: number
        #_near: number
        #_far: number
        #_projectionMatrix: Mat4
        #_renderEngine: Renderer
        +constructor(renderGameEngineComponent: Renderer, fov: number, aspect: number, near: number, far: number)
        +screenPointToWorldDirection(screenSpacePosition: Vector2): Vec3
        +getMVPMatrix(modelMatrix: Mat4): Mat4
        +fov: number
        +aspect: number
        +near: number
        +far: number
    }

    class RenderEngineUtility {
        +static toModelMatrix(transform: Transform): Float32Array
        +static quaternionToMatrix(quaternion: Quaternion): Float32Array
        +static toFloat32Attay(points: Vector2[]): Float32Array
        +static createLineIndicesForPoints(pointsDataFloat32: Float32Array): Uint16Array
        +static rayPlaneIntersection(rayOrigin: Vec3, rayDir: Vec3, planeNormal: Vec3, planePoint: Vec3): Vec3 | null
        +static toVec3(vector: Vector3): Vec3
    }

    class SpriteRenderBehavior {
        +constructor(renderEngine: Renderer, spriteImageUrl: RequestInfo | URL)
    }

    class BasicUVTexturedRenderBehavior {
        #_vertexBuffer: GPUBuffer | null
        #_indexBuffer: GPUBuffer | null
        #_indexData: Uint16Array
        #_spriteTexture: GPUTexture | null
        #_bindGroup: GPUBindGroup | null
        #_spriteImageUrl: RequestInfo | URL
        #_vertexData: Float32Array
        +constructor(renderEngine: Renderer, spriteImageUrl: RequestInfo | URL, vertexData: Float32Array, indexData: Uint16Array, vertexWGSLShader: string, fragmentWGSLShader: string)
        +asyncInit(): Promise<void>
        +render(renderpass: GPURenderPassEncoder): void
    }

    class TextRenderBehavior {
        #_fontJsonUrl: string
        #_font: MsdfFont | null
        #_text: MsdfText | null
        #_textString: string
        #_options: MsdfTextFormattingOptions
        +constructor(renderEngine: Renderer, fontJsonUrl: string, options?: MsdfTextFormattingOptions)
        +text: string
        +color: [number, number, number, number]
        +pixelScale: number
        +centered: boolean
        +asyncInit(): Promise<void>
        +render(renderpass: GPURenderPassEncoder): void
    }

    class WireframeRenderBehavior {
        #_vertexBuffer: GPUBuffer | null
        #_indexBuffer: GPUBuffer | null
        #_mvpUniformBuffer: GPUBuffer | null
        #_indexData: Uint16Array
        #_vertexData: Float32Array
        #_bindGroup: GPUBindGroup | null
        #_color: Color
        #_colorBuffer: GPUBuffer | null
        #_onReady: Event<void> | null
        +constructor(renderEngine: Renderer, vertexData: Float32Array, indexData: Uint16Array, color: Color, vertexWGSLShader: string, fragmentWGSLShader: string)
        +asyncInit(): Promise<void>
        +render(renderpass: GPURenderPassEncoder): void
        +color: Color
    }

    class LinesRenderBehavior {
        +constructor(renderEngine: Renderer, lineData: Vector2[], color: Color)
    }

    class ObjLoader {
        +static load(url: string): Promise<MeshData>
        -static parse(objText: string): MeshData
    }

    class MeshData {
        +vertices: Float32Array
        +indices: Uint16Array
    }

    class MeshRenderBehavior {
        +constructor(renderEngine: RenderGameEngineComponent, meshData: MeshData, textureImageUrl: RequestInfo | URL, vertexWGSLShader: string, fragmentWGSLShader: string)
    }

    class MsdfText {
        +constructor(engine: Renderer, renderBundle: GPURenderBundle, measurements: MsdfTextMeasurements, font: MsdfFont, textBuffer: GPUBuffer)
        +getRenderBundle(): GPURenderBundle
        +setTransform(matrix: Mat4): void
        +setColor(r: number, g: number, b: number, a: number): void
        +setPixelScale(pixelScale: number): void
    }

    class MsdfFont {
        +constructor(pipeline: GPURenderPipeline, bindGroup: GPUBindGroup, lineHeight: number, chars: { [x: number]: MsdfChar }, kernings: KerningMap)
        +getChar(charCode: number): MsdfChar
        +getXAdvance(charCode: number, nextCharCode: number): number
    }

    class MsdfChar {
        +id: number
        +index: number
        +char: string
        +width: number
        +height: number
        +xoffset: number
        +yoffset: number
        +xadvance: number
        +chnl: number
        +x: number
        +y: number
        +page: number
        +charIndex: number
    }

    class MsdfTextMeasurements {
        +width: number
        +height: number
        +lineWidths: number[]
        +printedCharCount: number
    }

    class MsdfTextFormattingOptions {
        +centered?: boolean
        +pixelScale?: number
        +color?: [number, number, number, number]
    }


    RenderGameEngineComponent -up-|> GameEngineComponent
    RenderGameEngineComponent .up.|> Renderer
    RenderBehavior -up-|> OutputBehavior
    SpriteRenderBehavior -up-|> BasicUVTexturedRenderBehavior
    BasicUVTexturedRenderBehavior -up-|> RenderBehavior
    TextRenderBehavior -up-|> RenderBehavior
    WireframeRenderBehavior -up-|> RenderBehavior
    LinesRenderBehavior -up-|> WireframeRenderBehavior
    MeshRenderBehavior -up-|> BasicUVTexturedRenderBehavior

    RenderGameEngineComponent --> Camera
    RenderGameEngineComponent ..> RenderBehavior : "uses"
    RenderBehavior ..> RenderEngineUtiliy : "uses"
    Camera ..> RenderEngineUtiliy : "uses"
    WireframeRenderBehavior ..> Color : "uses"
    LinesRenderBehavior ..> Color : "uses"
    ObjLoader ..> MeshData : "returns"
    MeshRenderBehavior ..> MeshData : "uses"
    MeshRenderBehavior ..> RenderGameEngineComponent : "uses"
    TextRenderBehavior ..> MsdfText : "uses"
    TextRenderBehavior ..> MsdfFont : "uses"
    MsdfText ..> MsdfFont : "uses"
    MsdfFont ..> MsdfChar : "uses"
    MsdfText ..> MsdfTextMeasurements : "uses"
    TextRenderBehavior ..> MsdfTextFormattingOptions : "uses"
}
 Renderer ..> webgpu
@enduml